<svg width="40" height="40" viewBox="0 0 40 40" fill="none" xmlns="http://www.w3.org/2000/svg"><g clip-path="url(#clip0_2343_18624)" fill="#fff"><path d="M26.583 16.367l-3.407 1.674 1.598 3.454 1.81-5.128zM27.672 20.524l-.81-3.844-.832 2.357 1.642 1.487zM17.714 20.886l5.14.663 1.636.21-1.723-3.726-1.027-2.22-.92 1.158-3.106 3.915zM17.527 21.23l-.628 5.4 7.358-4.532-1.66-.213-5.07-.655zM19.99 17.425l1.536-1.937-7.89-6.492 3.8 11.646 2.553-3.217zM17.076 21.922l-5.078 9.076 4.155-1.237.923-7.84z"/></g><defs><clipPath id="clip0_2343_18624"><path fill="#fff" transform="translate(12 9)" d="M0 0h15.674v22H0z"/></clipPath></defs></svg>